<?xml version="1.0" encoding="UTF-8"?>
<svg id="Layer_1" data-name="Layer 1" xmlns="http://www.w3.org/2000/svg" viewBox="0 0 300 300">
  <defs>
    <style>
      .cls-1 {
        fill: #fff;
      }

      .cls-2 {
        fill: #d82328;
      }
    </style>
  </defs>
  <rect class="cls-2" y="0" width="300" height="300"/>
  <g>
    <path class="cls-1" d="M164.82,130.57c-18.24,0-33.08,14.84-33.08,33.08s14.84,33.08,33.08,33.08c7.99,0,15.55-2.83,21.56-8.01l-6.79-8.36c-4.06,3.59-9.29,5.61-14.77,5.61-12.3,0-22.31-10.01-22.31-22.32s10.01-22.32,22.31-22.32c5.95,0,11.55,2.32,15.76,6.54l2.37,2.37-23.91,15.26,6.63,8.16,30.78-19.65c-1.26-4.11-3.34-7.99-6.08-11.33-6.33-7.7-15.65-12.12-25.57-12.12Z"/>
    <path class="cls-1" d="M210.74,191.91h.04v-28.4c0-12.34,10.03-22.37,22.36-22.37s22.36,10.04,22.36,22.37v28.4h.04v4.84h10.77v-33.23c0-18.3-14.88-33.18-33.18-33.18-2.71,0-5.41.33-8.04.99-10.51,2.63-19.1,10.26-22.97,20.41-1.44,3.77-2.17,7.74-2.17,11.78v33.23h10.77v-4.84Z"/>
    <path class="cls-1" d="M66.95,130.39h-13.57v10.81h13.57c12.33,0,22.37,10.04,22.37,22.37s-10.03,22.37-22.36,22.37-22.36-10.04-22.36-22.37v-47.32h-.09v-10.04l-10.81,4.54v31.8h.07s.02,2.49.02,2.49v18.53c0,18.3,14.88,33.18,33.18,33.18s33.18-14.88,33.18-33.18-14.88-33.18-33.18-33.18Z"/>
    <path class="cls-1" d="M117.03,165.03v-61.78l-10.81,4.54v57.31c.02,9.7,4.29,18.88,11.71,25.2,3.43,2.92,7.44,5.12,11.72,6.44v-11.58c-7.67-3.73-12.62-11.61-12.62-20.13Z"/>
  </g>
</svg>